<svg id="Layer_1" data-name="Layer 1" xmlns="http://www.w3.org/2000/svg" viewBox="0 0 100 100"><title>ic-</title><path d="M63.23,68.68H36.77a3.58,3.58,0,0,1-3.59-3.58V46.26a1.25,1.25,0,0,1,2.5,0V65.1a1.09,1.09,0,0,0,1.09,1.09H63.23a1.09,1.09,0,0,0,1.09-1.09V46.26a1.25,1.25,0,1,1,2.5,0V65.1A3.58,3.58,0,0,1,63.23,68.68Z"/><path d="M68.68,50.62a1.23,1.23,0,0,1-.88-.37L52.31,34.76a3.28,3.28,0,0,0-4.62,0L32.2,50.25a1.24,1.24,0,1,1-1.76-1.76L45.93,33a5.77,5.77,0,0,1,8.14,0L69.56,48.49a1.24,1.24,0,0,1,0,1.76,1.21,1.21,0,0,1-.88.37Z"/><path d="M55,68.68H45a1.25,1.25,0,0,1-1.25-1.24V56.38a3.9,3.9,0,0,1,3.89-3.89h4.68a3.9,3.9,0,0,1,3.89,3.89V67.44A1.25,1.25,0,0,1,55,68.68Zm-8.72-2.49h7.48V56.38a1.4,1.4,0,0,0-1.4-1.4H47.66a1.4,1.4,0,0,0-1.4,1.4Z"/></svg>