<svg id="Layer_1" data-name="Layer 1" xmlns="http://www.w3.org/2000/svg" viewBox="0 0 100 100"><title>ic-</title><g id="_03-professor" data-name=" 03-professor"><g id="linear_color" data-name="linear color"><path d="M64.48,59.64l-.4-.12C64.8,55.4,61.76,54,60,51.94a7.57,7.57,0,0,1-.83-3.06,6,6,0,0,0,1.59-3.8,1.92,1.92,0,0,0-.83-1.75A11.87,11.87,0,0,0,62,37.1,5.87,5.87,0,0,0,59.17,32a8.41,8.41,0,0,0-4.26-1.3A17.2,17.2,0,0,0,50,31.82a17.2,17.2,0,0,0-4.91-1.16A8.41,8.41,0,0,0,40.83,32,5.87,5.87,0,0,0,38,37.1a11.87,11.87,0,0,0,2.06,6.23,1.92,1.92,0,0,0-.83,1.75c0,1.46,1,4,2.74,4.51a8.42,8.42,0,0,0,3.4,4.56v2.53l-9.88,3a3.35,3.35,0,0,0-2.4,3.23v5.54a.92.92,0,0,0,1.84,0V62.87a1.55,1.55,0,0,1,1.09-1.47l3-.9-.41,2.87a.88.88,0,0,0,.22.73L43.12,69a.92.92,0,0,0,1.39-1.21l-4-4.59.48-3.3,1.67-.51,4,9.37a.92.92,0,1,0,1.69-.73h0L47.1,65h5.8l-1.29,3a.92.92,0,0,0,1.68.74h0l4-9.37,1.68.51.48,3.3-4,4.59A.92.92,0,1,0,56.87,69h0l4.25-4.92a.88.88,0,0,0,.22-.73l-.41-2.87,3,.9A1.55,1.55,0,0,1,65,62.87v5.54a.92.92,0,1,0,1.84,0V62.87A3.35,3.35,0,0,0,64.48,59.64ZM62.3,59l-7.7-2.31V54.15a8.8,8.8,0,0,0,3-3.46A6.79,6.79,0,0,0,58.44,53c1.41,1.92,4.34,3.07,3.86,6ZM51.42,42.32H48.58a4,4,0,0,0-5-.6c0-.17-.11-3,1.54-3.08a8.76,8.76,0,0,1,4.36,1.66.93.93,0,0,0,1.1,0,8.57,8.57,0,0,1,4.36-1.66c1.65.1,1.52,2.9,1.54,3.08A4,4,0,0,0,51.42,42.32Zm-3.57,2.76a2.15,2.15,0,1,1-2.15-2.14A2.15,2.15,0,0,1,47.85,45.08Zm6.45-2.14a2.15,2.15,0,1,1-2.15,2.14A2.15,2.15,0,0,1,54.3,42.94Zm4.58,1.92A3.61,3.61,0,0,1,58.29,47V45.45c.13-.15.32-.36.52-.61ZM41.83,33.5c2.7-1.79,5.5-.71,7.83.16a.89.89,0,0,0,.68,0,16.63,16.63,0,0,1,4.57-1.16c6.19.49,6.23,5.71,3.38,9.93v-1c0-1.59-.71-4.6-3.38-4.6A9.89,9.89,0,0,0,50,38.45a9.89,9.89,0,0,0-4.91-1.65c-2.67,0-3.38,3-3.38,4.6v1C40.08,40.13,38.55,35.43,41.83,33.5Zm-.71,11.36.07,0c.2.25.39.46.52.61V47a4.19,4.19,0,0,1-.61-1.92.82.82,0,0,1,0-.22Zm2.53,3.73s0-.06,0-.09a4,4,0,0,0,5.48-1.34,4,4,0,0,0,.47-3h.84a4,4,0,0,0,5.94,4.34s0,.06,0,.09h0C55.69,52.08,51.81,54,50,54s-5.69-1.91-6.35-5.4Zm2.66,14.6-1.85-4.31,2.12-.64a.91.91,0,0,0,.66-.88V55.18a7.3,7.3,0,0,0,2.76.65,7.3,7.3,0,0,0,2.76-.65v2.18a.91.91,0,0,0,.66.88l2.12.64-1.85,4.31Z"/></g></g></svg>