<svg id="Layer_1" data-name="Layer 1" xmlns="http://www.w3.org/2000/svg" viewBox="0 0 100 100"><title>ic-</title><g id="_14-test" data-name=" 14-test"><g id="linear_color" data-name="linear color"><circle cx="48.36" cy="34.03" r="0.96"/><path d="M41.34,47.13h3.83a1,1,0,0,0,1-1V42.33a1,1,0,0,0-1-.95H41.34a1,1,0,0,0-1,.95v3.84A1,1,0,0,0,41.34,47.13Zm.95-3.84h1.92v1.92H42.29Z"/><path d="M41.34,55.43h3.83a1,1,0,0,0,1-1V50.64a1,1,0,0,0-1-1H41.34a1,1,0,0,0-1,1v3.83A1,1,0,0,0,41.34,55.43Zm.95-3.83h1.92v1.91H42.29Z"/><path d="M49,45.21h5.75a1,1,0,0,0,0-1.92H49a1,1,0,0,0,0,1.92Z"/><path d="M49,53.51h5.75a1,1,0,1,0,0-1.91H49a1,1,0,1,0,0,1.91Z"/><path d="M64,55.75V35a1.91,1.91,0,0,0-1.91-1.92H52.4a4.15,4.15,0,0,0-8.08,0H34.71A1.92,1.92,0,0,0,32.79,35V65a1.92,1.92,0,0,0,1.92,1.92H52.84a8,8,0,1,0,12.77-9.58A8.08,8.08,0,0,0,64,55.75ZM62.1,54.69a8,8,0,0,0-1.92-.48V35H62.1ZM45.17,35a1,1,0,0,0,.95-.86.34.34,0,0,0,0-.1,2.24,2.24,0,1,1,4.47,0,1,1,0,0,0,1,1h1.59v2.55H43.57V35Zm-3.51,0V38.5a1,1,0,0,0,1,1h11.5a1,1,0,0,0,1-1V35h3.19V54.21a8,8,0,0,0-7,7H38.46V35ZM34.71,65V35h1.83V62.14a1,1,0,0,0,1,1H51.3A7.42,7.42,0,0,0,51.77,65Zm24.51,3.2a6.07,6.07,0,1,1,6.07-6.07h0A6.08,6.08,0,0,1,59.22,68.21Z"/><path d="M61.74,59.54,58.58,62.7l-1.24-1.24A1,1,0,0,0,56,62.81l1.92,1.92a.94.94,0,0,0,1.35,0l3.83-3.83a1,1,0,0,0,0-1.36,1,1,0,0,0-1.34,0Z"/></g></g></svg>