<svg id="Layer_1" data-name="Layer 1" xmlns="http://www.w3.org/2000/svg" viewBox="0 0 100 100"><title>ic-</title><g id="_26-search" data-name=" 26-search"><g id="linear_color" data-name="linear color"><path d="M42.89,37.77h7.17a1,1,0,0,0,0-2H42.89a1,1,0,0,0,0,2Z"/><path d="M42.89,41.67H45.5a1,1,0,1,0,0-2H42.89a1,1,0,0,0,0,2Z"/><path d="M69.7,63.36l-6.48-6.48a2,2,0,0,0-2.82-.06l-1.06-1a9.44,9.44,0,0,0-4.4-14.93v-8a1,1,0,0,0-1-1H32.47a2.94,2.94,0,0,0-2.93,2.94V59.59a3.59,3.59,0,0,0,3.58,3.58H54a1,1,0,0,0,1-1V58.8a9.36,9.36,0,0,0,3-1.65L59,58.21A2,2,0,0,0,59.08,61l6.48,6.47a2,2,0,0,0,2.87,0l1.27-1.26a1.94,1.94,0,0,0,.3-2.78A.27.27,0,0,0,69.7,63.36ZM59.5,49.82A7.49,7.49,0,1,1,52,42.33,7.49,7.49,0,0,1,59.5,49.82ZM42.71,51.44H36.06V46.89h7a9.37,9.37,0,0,0-.33,4.55ZM38,33.86v6.5c-.9-.53-1-.53-1.95,0v-6.5Zm-5.54,0H34.1V42a1,1,0,0,0,1.44.86L37,42.05l1.49.81A1,1,0,0,0,40,42V33.86H53v6.56a9.44,9.44,0,0,0-9.06,4.51H35.08a1,1,0,0,0-1,1v6.51a1,1,0,0,0,1,1h8.2a9.4,9.4,0,0,0,1.6,2.6H33.12a3.53,3.53,0,0,0-1.62.4V34.84A1,1,0,0,1,32.47,33.86ZM53,61.22H33.12a1.63,1.63,0,0,1,0-3.26H47.23A9.45,9.45,0,0,0,52,59.26c.33,0,.66,0,1,0Zm15.33,3.64-1.27,1.26a.08.08,0,0,1-.11,0l-6.48-6.48a.08.08,0,0,1,0-.11l1.27-1.27h0a.08.08,0,0,1,.11,0l6.48,6.48A.09.09,0,0,1,68.32,64.86Z"/><path d="M47.78,47.86v2.61a3.58,3.58,0,0,0,6,2.65l.89.72a1,1,0,0,0,1.22-1.53h0l-1.07-.86a3.62,3.62,0,0,0,.13-1V47.86a3.58,3.58,0,0,0-7.16,0Zm5.21,0V50l-.37-.29a1,1,0,0,0-1.22,1.52l.8.63a1.63,1.63,0,0,1-2.47-1.39V47.86a1.63,1.63,0,0,1,3.26,0Z"/></g></g></svg>