<svg id="Layer_1" data-name="Layer 1" xmlns="http://www.w3.org/2000/svg" viewBox="0 0 100 100"><title>ic-</title><path d="M50,69.16a19.15,19.15,0,0,1-12.39-4.54,19.38,19.38,0,0,1-2.26-2.27,19.16,19.16,0,1,1,29.3,0,19.38,19.38,0,0,1-2.26,2.27A19.15,19.15,0,0,1,50,69.16Zm0-35.93A16.77,16.77,0,1,0,66.77,50,16.79,16.79,0,0,0,50,33.23Z"/><path d="M50,50a7.19,7.19,0,1,1,7.19-7.19A7.2,7.2,0,0,1,50,50Zm0-12a4.79,4.79,0,1,0,4.79,4.79A4.8,4.8,0,0,0,50,38Z"/><path d="M61.62,64.9a1.36,1.36,0,0,1-.29,0,1.19,1.19,0,0,1-.87-1.46,11,11,0,0,0,.32-2.63A10.82,10.82,0,0,0,50.16,50h-.32A10.82,10.82,0,0,0,39.22,60.78a11,11,0,0,0,.32,2.63,1.2,1.2,0,1,1-2.32.59,13.39,13.39,0,0,1-.39-3.22,13.15,13.15,0,0,1,13-13.17h.38a13.15,13.15,0,0,1,13,13.17A13.39,13.39,0,0,1,62.78,64,1.2,1.2,0,0,1,61.62,64.9Z"/></svg>