<svg id="Layer_1" data-name="Layer 1" xmlns="http://www.w3.org/2000/svg" viewBox="0 0 100 100"><title>ic-</title><g id="_10-online" data-name=" 10-online"><g id="linear_color" data-name="linear color"><path d="M65.89,32.13H34.11a2,2,0,0,0-2,2v25a2,2,0,0,0,2,2H46.48L46,64.68a17,17,0,0,0-3.31,1.63.85.85,0,0,0,.47,1.56H56.81a.85.85,0,0,0,.47-1.56A17,17,0,0,0,54,64.68l-.45-3.62H65.89a2,2,0,0,0,2-2v-25A2,2,0,0,0,65.89,32.13Zm.28,2V45.46a4.27,4.27,0,0,0-2.55-.85H60.78V43.19a4.24,4.24,0,0,0,1.68-3,5.08,5.08,0,0,0,2-4.44,4.18,4.18,0,0,0-.73-1.92h2.16A.29.29,0,0,1,66.17,34.11Zm0,19.58h-1.7v-2a.85.85,0,1,0-1.7,0v2H53.69V48.87a.86.86,0,0,0-.85-.86h-4a.86.86,0,0,1-.86-.85V42.34h1.71v3.12a.85.85,0,0,0,.85.85h3l4.08,4.28a.85.85,0,0,0,.6.26h0a.82.82,0,0,0,.59-.24L63,46.31h.59a2.56,2.56,0,0,1,2.55,2.56Zm-32.34,0V37.23H51.92a3.63,3.63,0,0,0,2,1.07v1.49a4.24,4.24,0,0,0,1.7,3.4v1.42H51.42V39.79a2.56,2.56,0,1,0-5.11,0v7.37a2.57,2.57,0,0,0,2.56,2.56H52v4ZM57.25,37.85l.17.51a.85.85,0,0,0,.81.58,3.86,3.86,0,0,0,2.26-.79l.29,1.7a2.56,2.56,0,0,1-5.11-.06V38.32A4.58,4.58,0,0,0,57.25,37.85Zm2.68,8.46h.64L58.25,48.8l-2.37-2.49h.64a.86.86,0,0,0,.86-.85V44a4.42,4.42,0,0,0,1.7,0v1.5A.85.85,0,0,0,59.93,46.31ZM49.72,40.64H48v-.85a.86.86,0,0,1,.86-.85.85.85,0,0,1,.85.85Zm7.37-6.81c1.5,0,3.77,0,4.73.48a2.2,2.2,0,0,1,1,1.63,2.93,2.93,0,0,1-.58,2l-.29-1.72a.85.85,0,0,0-1-.7.83.83,0,0,0-.57.37,3.64,3.64,0,0,1-1.55,1.23l-.34-1a.88.88,0,0,0-.77-.61.82.82,0,0,0-.8.49c-.07.1-.55.68-2.08.68a2.86,2.86,0,0,1-1-.19A5.92,5.92,0,0,0,55.2,36a.85.85,0,0,0,.38-1.14.81.81,0,0,0-.28-.33,4.66,4.66,0,0,1-.83-.71Zm-23,0H52.45a3.67,3.67,0,0,0,.66,1A8.47,8.47,0,0,1,52,35a.83.83,0,0,0-.81.56H33.83V34.11A.29.29,0,0,1,34.11,33.83ZM46.93,66.17a8.55,8.55,0,0,1,6.14,0Zm5.26-2a9.81,9.81,0,0,0-4.38,0l.39-3.09h3.6Zm14-5.07a.29.29,0,0,1-.28.28H34.11a.29.29,0,0,1-.28-.28V55.39H66.17Z"/><path d="M51.13,56.52H48.87a.86.86,0,1,0,0,1.71h2.26a.86.86,0,1,0,0-1.71Z"/><path d="M36.38,41.21h5.11a.85.85,0,0,0,.85-.85.86.86,0,0,0-.85-.86H36.38a.86.86,0,0,0-.85.86A.85.85,0,0,0,36.38,41.21Z"/><path d="M36.38,44.61h7.38a.85.85,0,0,0,0-1.7H36.38a.85.85,0,0,0,0,1.7Z"/><path d="M36.38,48h7.38a.85.85,0,0,0,0-1.7H36.38a.85.85,0,1,0,0,1.7Z"/><path d="M38.65,49.72H36.38a.85.85,0,0,0,0,1.7h2.27a.85.85,0,0,0,0-1.7Z"/><path d="M45.46,49.72h-3.4a.85.85,0,0,0,0,1.7h3.4a.85.85,0,0,0,0-1.7Z"/></g></g></svg>