<svg id="Layer_1" data-name="Layer 1" xmlns="http://www.w3.org/2000/svg" viewBox="0 0 100 100"><title>ic-</title><path d="M69,41.15a1.26,1.26,0,0,0,1.27-1.26v-5A1.27,1.27,0,0,0,69,33.57H31.05a1.27,1.27,0,0,0-1.27,1.27v5a1.26,1.26,0,0,0,1.27,1.26h.63V63.9h-.63a1.27,1.27,0,1,0,0,2.53H69a1.27,1.27,0,1,0,0-2.53h-.63V41.15ZM65.8,63.9H34.2V41.15H65.8Zm1.89-25.27H32.31V36.1H67.69Z"/><path d="M62.94,48.66,50.33,43.19a.84.84,0,0,0-.66,0L37.06,48.66a.84.84,0,0,0,0,1.54l4.54,2v5.25c0,2.83,3.69,5,8.4,5s8.4-2.21,8.4-5V52.16l.84-.36v9a.84.84,0,0,0,1.68,0v-9.7l2-.87A.84.84,0,0,0,62.94,48.66ZM50,44.88l10.49,4.55-.83.36-9.56-1.2a.84.84,0,0,0-.2,1.67l6.73.84L50,54,39.51,49.43Zm6.72,12.53c0,.79-.65,1.61-1.78,2.24a11.41,11.41,0,0,1-9.88,0c-1.13-.63-1.78-1.45-1.78-2.24V52.89l6.39,2.77a.84.84,0,0,0,.66,0l6.39-2.77Z"/></svg>